<?xml version="1.0" encoding="UTF-8" standalone="no"?>
<svg
   xmlns:dc="http://purl.org/dc/elements/1.1/"
   xmlns:cc="http://creativecommons.org/ns#"
   xmlns:rdf="http://www.w3.org/1999/02/22-rdf-syntax-ns#"
   xmlns:svg="http://www.w3.org/2000/svg"
   xmlns="http://www.w3.org/2000/svg"
   xmlns:sodipodi="http://sodipodi.sourceforge.net/DTD/sodipodi-0.dtd"
   xmlns:inkscape="http://www.inkscape.org/namespaces/inkscape"
   inkscape:version="1.0 (4035a4fb49, 2020-05-01)"
   sodipodi:docname="Unlinked.svg"
   id="svg4"
   version="1.1"
   width="16"
   viewBox="0 0 16 16"
   height="16">
  <metadata
     id="metadata10">
    <rdf:RDF>
      <cc:Work
         rdf:about="">
        <dc:format>image/svg+xml</dc:format>
        <dc:type
           rdf:resource="http://purl.org/dc/dcmitype/StillImage" />
        <dc:title></dc:title>
      </cc:Work>
    </rdf:RDF>
  </metadata>
  <defs
     id="defs8" />
  <sodipodi:namedview
     inkscape:current-layer="svg4"
     inkscape:window-maximized="1"
     inkscape:window-y="0"
     inkscape:window-x="1920"
     inkscape:cy="7.6805392"
     inkscape:cx="9.8133204"
     inkscape:zoom="44.6875"
     inkscape:pagecheckerboard="true"
     showgrid="true"
     id="namedview6"
     inkscape:window-height="1015"
     inkscape:window-width="1920"
     inkscape:pageshadow="2"
     inkscape:pageopacity="0"
     guidetolerance="10"
     gridtolerance="10"
     objecttolerance="10"
     borderopacity="1"
     bordercolor="#666666"
     pagecolor="#ffffff">
    <inkscape:grid
       id="grid12"
       type="xygrid" />
  </sodipodi:namedview>
  <path
     style="fill:#ff0000"
     id="path2"
     fill="#a5efac"
     d="m 13,6 a 5,5 0 0 0 -2.5,-4.3301 5,5 0 0 0 -5,0 A 5,5 0 0 0 3,6 V 7 H 5 V 6 a 3,3 0 0 1 3,-3 3,3 0 0 1 3,3 v 1 h 2 z m 0,3 H 11 V 9.9999999 A 3,3 0 0 1 8,13 3,3 0 0 1 5,9.9999999 V 9 H 3 v 0.9999999 a 5,5 0 0 0 2.5,4.3301001 5,5 0 0 0 5,0 A 5,5 0 0 0 13,9.9999999 Z M 9,6 A 0.99998,0.99998 0 0 0 8,5 0.99998,0.99998 0 0 0 7,6 V 9.9999999 A 0.99998,0.99998 0 0 0 8,11 0.99998,0.99998 0 0 0 9,9.9999999 Z" />
</svg>
